<svg xmlns="http://www.w3.org/2000/svg" version="1.1" xmlns:xlink="http://www.w3.org/1999/xlink" xmlns:svgjs="http://svgjs.dev/svgjs" width="1500" height="1500" viewBox="0 0 1500 1500"><g transform="matrix(1,0,0,1,-0.323615160350073,-0.3236151603499593)"><svg viewBox="0 0 343 343" data-background-color="#4d7e3e" preserveAspectRatio="xMidYMid meet" height="1500" width="1500" xmlns="http://www.w3.org/2000/svg" xmlns:xlink="http://www.w3.org/1999/xlink"><g id="tight-bounds" transform="matrix(1,0,0,1,0.0740000000000407,0.07400000000001228)"><svg viewBox="0 0 342.85155851775386 342.85155851775386" height="342.85155851775386" width="342.85155851775386"><g><svg></svg></g><g><svg viewBox="0 0 342.85155851775386 342.85155851775386" height="342.85155851775386" width="342.85155851775386"><g><path d="M0 171.426c0-94.676 76.75-171.426 171.426-171.426 94.676 0 171.426 76.75 171.426 171.426 0 94.676-76.75 171.426-171.426 171.426-94.676 0-171.426-76.75-171.426-171.426zM171.426 340.041c93.124 0 168.615-75.492 168.615-168.615 0-93.124-75.492-168.615-168.615-168.615-93.124 0-168.615 75.492-168.615 168.615 0 93.124 75.492 168.615 168.615 168.615z" data-fill-palette-color="tertiary" fill="#ffffff" stroke="transparent"></path><ellipse rx="164.56874808852186" ry="164.56874808852186" cx="171.42577925887693" cy="171.42577925887693" fill="#ffffff" stroke="transparent" stroke-width="0" fill-opacity="1" data-fill-palette-color="tertiary"></ellipse></g><g transform="matrix(1,0,0,1,64.84655864529837,155.8430395122041)"><svg viewBox="0 0 213.1584412271571 31.165479493345703" height="31.165479493345703" width="213.1584412271571"><g><svg viewBox="0 0 213.1584412271571 31.165479493345703" height="31.165479493345703" width="213.1584412271571"><g><svg viewBox="0 0 213.1584412271571 31.165479493345703" height="31.165479493345703" width="213.1584412271571"><g><svg viewBox="0 0 213.1584412271571 31.165479493345703" height="31.165479493345703" width="213.1584412271571"><g id="textblocktransform"><svg viewBox="0 0 213.1584412271571 31.165479493345703" height="31.165479493345703" width="213.1584412271571" id="textblock"><g><svg viewBox="0 0 213.1584412271571 31.165479493345703" height="31.165479493345703" width="213.1584412271571"><g transform="matrix(1,0,0,1,0,0)"><svg width="213.1584412271571" viewBox="0.71 -38.01 263.3 38.5" height="31.165479493345703" data-palette-color="#4d7e3e"><path d="M9.99-20.7L9.99-20.7 9.99-15.65Q9.99-7.89 10.17-6.09 10.35-4.3 10.52-3.52 10.69-2.73 11.04-2.12L11.04-2.12Q11.57-1.12 13.09 0L13.09 0 0.71 0Q2.64-1.2 3.22-2.08L3.22-2.08Q4.35-3.74 4.35-6.37L4.35-6.37Q4.32-12.87 4.32-18.14L4.32-18.14 4.32-30.96Q4.32-34.59 3.17-36.23L3.17-36.23Q2.73-36.82 2.12-37.35L2.12-37.35 20.48-37.35Q22.14-36.77 22.75-33.25L22.75-33.25Q22.92-32.28 22.92-31.35L22.92-31.35Q22.92-29.44 22.36-28.32L22.36-28.32 21.04-30.96Q19.73-33.54 17.26-34.42L17.26-34.42Q15.89-34.91 14.18-34.91 12.48-34.91 11.74-34.8 11.01-34.69 10.62-34.28L10.62-34.28Q9.99-33.57 9.99-31.58 9.99-29.59 10.08-28.82 10.18-28.05 10.55-27.56L10.55-27.56Q11.3-26.61 13.75-26.61L13.75-26.61 21.41-26.61Q20.85-25.2 20.26-24.61L20.26-24.61Q19.09-23.44 17.09-23.44L17.09-23.44Q16.31-23.44 15.6-23.61L15.6-23.61Q14.28-23.93 13.28-23.93 12.28-23.93 11.63-23.74 10.99-23.56 10.62-23.17L10.62-23.17Q9.99-22.49 9.99-20.7ZM43.14-8.3L43.14-8.3Q44.02-7.71 44.02-6.26 44.02-4.81 43.63-3.71 43.23-2.61 42.26-1.66L42.26-1.66Q40.06 0.49 35.57 0.49L35.57 0.49Q30.34 0.49 27.61-3.37L27.61-3.37Q25.19-6.81 25.19-12.67L25.19-12.67Q25.19-18.58 28.46-21.95L28.46-21.95Q31.56-25.15 36.86-25.15L36.86-25.15Q40.55-25.15 42.62-23L42.62-23Q44.26-21.29 44.26-19.06 44.26-16.82 43.39-15.03 42.53-13.23 40.84-11.94L40.84-11.94Q37.38-9.25 31.15-9.11L31.15-9.11Q31.66-4.2 34.23-2.54L34.23-2.54Q35.15-1.95 36.69-1.95 38.23-1.95 39.96-3.56 41.7-5.18 43.14-8.3ZM31-12.18L31-11.43Q38.72-11.94 38.72-18.9L38.72-18.9Q38.72-21.51 37.16-22.41L37.16-22.41Q36.62-22.71 35.74-22.71 34.86-22.71 33.97-22.17 33.08-21.63 32.42-20.41L32.42-20.41Q31-17.75 31-12.18L31-12.18ZM63.81 0L63.47-1.93Q60.81 0.49 56.71 0.49L56.71 0.49Q52.95 0.49 50.78-1.68L50.78-1.68Q48.53-3.93 48.53-8.02 48.53-12.11 49.73-15.17 50.92-18.24 52.88-20.31L52.88-20.31Q56.73-24.41 62.35-24.63L62.35-24.63Q62.15-32.15 61.85-33.26 61.54-34.38 61.24-35.02 60.93-35.67 60.54-36.21L60.54-36.21 59.71-37.35 68.62-37.35Q67.94-34.89 67.83-32.57 67.72-30.25 67.67-28.49 67.62-26.73 67.6-24.8L67.6-24.8Q67.52-21.58 67.52-18.4 67.52-15.21 67.54-13.57 67.55-11.94 67.6-10.47L67.6-10.47Q67.72-4.98 68.01-3.94 68.31-2.91 68.61-2.28 68.92-1.66 69.31-1.12L69.31-1.12 70.14 0 63.81 0ZM62.39-8.96Q62.5-12.72 62.5-16 62.5-19.29 62.42-22.27L62.42-22.27Q58.88-21.73 56.76-18.09L56.76-18.09Q54.63-14.48 54.63-8.98L54.63-8.98Q54.63-5.74 55.13-4.44 55.63-3.15 56.33-2.55 57.03-1.95 58.02-1.95 59-1.95 59.75-2.36 60.49-2.76 61.05-3.54L61.05-3.54Q62.28-5.2 62.39-8.96ZM81.91-31.23Q81.41-30.42 80.71-29.87 80-29.32 79.09-29.32 78.19-29.32 77.48-29.87 76.77-30.42 76.29-31.23L76.29-31.23Q75.29-32.89 75.29-34.74L75.29-34.74Q75.29-36.99 77.34-37.74L77.34-37.74Q78.07-38.01 79.12-38.01L79.12-38.01Q82.02-38.01 82.73-35.96L82.73-35.96Q82.95-35.38 82.95-34.66 82.95-33.94 82.68-32.98 82.41-32.03 81.91-31.23ZM82.49 0L75.29 0Q76.41-3.86 76.41-13.26L76.41-13.26Q76.41-19.87 75.24-22.36L75.24-22.36Q74.94-23 74.58-23.54L74.58-23.54 73.77-24.66 82.44-24.66Q81.36-20.63 81.36-12.24 81.36-3.86 82.49 0L82.49 0ZM128.19-32.01L128.19-32.01Q128.19-27.91 122.18-25.27L122.18-25.27Q127.16-24.34 128.67-20.75L128.67-20.75Q129.16-19.56 129.16-17.59 129.16-15.63 128.59-13.34 128.01-11.06 126.78-9.05 125.55-7.03 123.64-5.37 121.74-3.71 119.08-2.51L119.08-2.51Q113.49 0 105.26 0L105.26 0Q106.04-1.86 106.18-3.1 106.31-4.35 106.41-5.76L106.41-5.76Q106.6-8.64 106.6-13.5L106.6-13.5Q106.6-19.38 106.41-24.24L106.41-24.24 106.14-30.96Q106.04-33.5 105.7-34.5L105.7-34.5Q105.16-36.08 103.94-37.35L103.94-37.35 116.86-37.35Q122.77-37.35 125.4-36.18L125.4-36.18Q128.19-34.96 128.19-32.01ZM112.29-19.36L112.29-19.36 112.32-6.96Q112.32-5.57 112.62-4.86 112.93-4.15 113.85-4.15L113.85-4.15Q117.61-4.15 120.13-7.71L120.13-7.71Q122.72-11.38 122.72-17.24L122.72-17.24Q122.72-20.14 121.42-21.56L121.42-21.56Q119.71-23.44 115.3-23.44L115.3-23.44Q114.29-23.44 113.71-23.35 113.12-23.27 112.8-22.88L112.8-22.88Q112.29-22.24 112.29-19.36ZM120.36-27.83Q121.11-28.56 121.42-29.39 121.74-30.22 121.74-30.94 121.74-31.67 121.53-32.4 121.33-33.13 120.72-33.69L120.72-33.69Q119.35-34.91 116.03-34.91L116.03-34.91Q113.51-34.91 113.02-34.41 112.54-33.91 112.41-33.08 112.29-32.25 112.29-30.94 112.29-29.64 112.37-28.77 112.44-27.91 112.76-27.32L112.76-27.32Q113.37-26.12 115.26-26.12 117.15-26.12 118.38-26.61 119.62-27.1 120.36-27.83ZM141.15 0L133.94 0Q135.07-3.86 135.07-13.26L135.07-13.26Q135.07-19.95 133.99-22.39L133.99-22.39Q133.55-23.39 132.43-24.66L132.43-24.66 141.1-24.66Q140.66-23.12 140.39-20.43L140.39-20.43Q142.69-23.32 146.79-24.51L146.79-24.51Q148.54-25.02 149.35-26.12L149.35-26.12Q150.16-24.19 150.16-22.8 150.16-21.41 150.01-20.23 149.86-19.04 149.57-17.92L149.57-17.92Q148.94-15.5 147.89-14.16L147.89-14.16Q146.98-18.92 145.08-19.73L145.08-19.73Q142.88-20.68 140.78-17.14L140.78-17.14Q140.34-16.41 140.05-15.58L140.05-15.58Q140.02-15.01 140.02-14.43 140.02-13.84 140.02-13.26L140.02-13.26Q140.02-3.86 141.15 0L141.15 0ZM171.59-13.04L171.59-13.04 171.52-8.35Q171.52-3.98 172.32-2.39L172.32-2.39Q172.81-1.44 173.47-0.93L173.47-0.93 174.62 0 167.54 0 166.78-2.83Q164.02 0.49 158.92 0.49L158.92 0.49Q156.01 0.49 154.23-1.46L154.23-1.46Q152.67-3.22 152.67-5.62 152.67-8.01 153.8-9.79 154.94-11.57 156.79-12.74L156.79-12.74Q160.46-15.01 166-15.11L166-15.11 166-15.38Q166-21.31 164.17-22.34L164.17-22.34Q163.51-22.71 162.47-22.71 161.43-22.71 160.41-22.02 159.38-21.34 158.55-20.26L158.55-20.26Q156.89-18.09 156.18-15.14L156.18-15.14Q154.01-16.43 154.01-20.09L154.01-20.09Q154.01-21.58 154.4-23.44L154.4-23.44Q155.33-23.44 156.16-23.71L156.16-23.71 158.04-24.29Q160.8-25.15 163.43-25.15 166.07-25.15 167.65-24.37 169.22-23.58 170.1-22.05L170.1-22.05Q171.59-19.43 171.59-13.04ZM157.94-5.13Q157.94-3.61 158.64-2.78 159.33-1.95 160.38-1.95 161.43-1.95 162.41-2.5 163.39-3.05 164.17-4L164.17-4Q166-6.18 166-9.11L166-9.11 166-12.72Q162.58-12.4 160.36-10.45L160.36-10.45Q157.94-8.35 157.94-5.13L157.94-5.13ZM199.81 0L192.61 0Q193.73-3.86 193.73-13.26L193.73-13.26Q193.73-17.19 193.31-18.49 192.9-19.8 192.28-20.4 191.65-21 190.62-21 189.58-21 188.74-20.61 187.9-20.21 187.24-19.58L187.24-19.58Q185.99-18.41 185.21-16.46L185.21-16.46 185.21-11.79Q185.21-4.93 185.48-3.3L185.48-3.3Q185.8-1.15 186.14 0L186.14 0 178.94 0Q179.52-2.05 179.72-5.44L179.72-5.44Q180.16-13.94 180.16-17.96 180.16-21.97 180.13-23.45 180.11-24.93 180.06-26.39L180.06-26.39Q179.94-31.71 179.58-33.07 179.23-34.42 178.92-35.05 178.62-35.67 178.25-36.18L178.25-36.18 177.42-37.33 186.33-37.33Q185.65-34.86 185.54-32.74 185.43-30.62 185.38-29.28 185.33-27.95 185.28-26.49L185.28-26.49Q185.21-23.07 185.21-20.46L185.21-20.46Q187.14-23.71 190.31-24.76L190.31-24.76Q191.44-25.15 192.83-25.15 194.22-25.15 195.35-24.55 196.49-23.95 197.25-22.85L197.25-22.85Q198.81-20.63 198.81-16.77L198.81-16.77 198.81-14.16Q198.81-6.69 199.02-4.8 199.22-2.91 199.3-2.29L199.3-2.29Q199.47-1.22 199.81 0L199.81 0ZM223.1-8.3L223.1-8.3Q223.98-7.71 223.98-6.26 223.98-4.81 223.59-3.71 223.2-2.61 222.22-1.66L222.22-1.66Q220.02 0.49 215.53 0.49L215.53 0.49Q210.3 0.49 207.57-3.37L207.57-3.37Q205.15-6.81 205.15-12.67L205.15-12.67Q205.15-18.58 208.42-21.95L208.42-21.95Q211.53-25.15 216.82-25.15L216.82-25.15Q220.51-25.15 222.58-23L222.58-23Q224.22-21.29 224.22-19.06 224.22-16.82 223.35-15.03 222.49-13.23 220.8-11.94L220.8-11.94Q217.34-9.25 211.11-9.11L211.11-9.11Q211.62-4.2 214.19-2.54L214.19-2.54Q215.11-1.95 216.65-1.95 218.19-1.95 219.92-3.56 221.66-5.18 223.1-8.3ZM210.96-12.18L210.96-11.43Q218.68-11.94 218.68-18.9L218.68-18.9Q218.68-21.51 217.12-22.41L217.12-22.41Q216.58-22.71 215.7-22.71 214.82-22.71 213.93-22.17 213.04-21.63 212.38-20.41L212.38-20.41Q210.96-17.75 210.96-12.18L210.96-12.18ZM237.21 0L230.2 0Q231.32-3.86 231.32-13.26L231.32-13.26Q231.32-19.95 230.15-22.39L230.15-22.39Q229.86-23 229.49-23.54L229.49-23.54 228.69-24.66 237.16-24.66Q236.79-23.22 236.67-22.36L236.67-22.36 236.5-20.9Q239.33-25.15 243.71-25.15 248.1-25.15 249.39-20.39L249.39-20.39Q251.32-23.68 254.49-24.76L254.49-24.76Q255.61-25.15 257.02-25.15 258.42-25.15 259.56-24.55 260.69-23.95 261.47-22.85L261.47-22.85Q263.01-20.63 263.01-16.77L263.01-16.77 263.01-14.16Q263.01-6.69 263.22-4.8 263.43-2.91 263.52-2.29L263.52-2.29Q263.67-1.22 264.01 0L264.01 0 256.81 0Q257.89-3.69 257.89-13.26L257.89-13.26Q257.89-17.14 257.49-18.47 257.1-19.8 256.48-20.4 255.86-21 254.78-21L254.78-21Q251.64-21 249.78-17.29L249.78-17.29 249.78-14.16Q249.78-6.69 249.99-4.8 250.19-2.91 250.29-2.29L250.29-2.29Q250.44-1.22 250.78 0L250.78 0 243.58 0Q244.68-3.76 244.68-13.26L244.68-13.26Q244.68-17.24 244.29-18.52 243.9-19.8 243.29-20.4 242.68-21 241.61-21 240.55-21 239.7-20.58 238.84-20.17 238.16-19.48L238.16-19.48Q236.86-18.21 236.13-16.21L236.13-16.21Q236.08-15.5 236.08-14.75L236.08-14.75 236.08-13.26Q236.08-3.86 237.21 0L237.21 0ZM248.88-14.7L248.97-15.14 248.88-14.7Z" opacity="1" transform="matrix(1,0,0,1,0,0)" fill="#4d7e3e" class="wordmark-text-0" data-fill-palette-color="quaternary" id="text-0"></path></svg></g></svg></g></svg></g></svg></g><g></g></svg></g></svg></g></svg></g></svg></g><defs></defs></svg><rect width="342.85155851775386" height="342.85155851775386" fill="none" stroke="none" visibility="hidden"></rect></g></svg></g></svg>